<svg width="22" height="22" viewBox="0 0 22 22" fill="none" xmlns="http://www.w3.org/2000/svg">
    <path
        d="M10.75 0C4.822 0 0 4.823 0 10.75C0 16.677 4.822 21.5 10.75 21.5C16.678 21.5 21.5 16.677 21.5 10.75C21.5 4.823 16.678 0 10.75 0ZM10.75 20C5.649 20 1.5 15.851 1.5 10.75C1.5 5.649 5.649 1.5 10.75 1.5C15.851 1.5 20 5.649 20 10.75C20 15.851 15.851 20 10.75 20ZM14.28 8.28003L11.81 10.75L14.28 13.22C14.573 13.513 14.573 13.988 14.28 14.281C14.134 14.427 13.942 14.501 13.75 14.501C13.558 14.501 13.366 14.428 13.22 14.281L10.75 11.811L8.28 14.281C8.134 14.427 7.942 14.501 7.75 14.501C7.558 14.501 7.366 14.428 7.22 14.281C6.927 13.988 6.927 13.513 7.22 13.22L9.69 10.75L7.22 8.28003C6.927 7.98703 6.927 7.51199 7.22 7.21899C7.513 6.92599 7.98801 6.92599 8.28101 7.21899L10.751 9.68903L13.221 7.21899C13.514 6.92599 13.989 6.92599 14.282 7.21899C14.573 7.51199 14.573 7.98803 14.28 8.28003Z"
        fill="#7E8CA0" />
</svg>
