<svg width="24" height="25" viewBox="0 0 24 25" fill="none" xmlns="http://www.w3.org/2000/svg">
<g id="home-dash">
<path id="Vector" opacity="0.4" fill-rule="evenodd" clip-rule="evenodd" d="M19.5128 19.6342L20.9679 11.6512C21.0979 10.9372 20.8309 10.2092 20.2709 9.74822L13.5888 4.25518C12.6658 3.49618 11.3348 3.49618 10.4118 4.25518L3.72984 9.74822C3.16884 10.2092 2.90182 10.9372 3.03282 11.6512L4.48789 19.6332C4.70489 20.8212 5.73986 21.6852 6.94786 21.6852H17.0538C18.2608 21.6862 19.2958 20.8222 19.5128 19.6342Z" fill="#25314C"/>
<path id="Vector_2" d="M14 18.4362H10C9.586 18.4362 9.25 18.1002 9.25 17.6862C9.25 17.2722 9.586 16.9362 10 16.9362H14C14.414 16.9362 14.75 17.2722 14.75 17.6862C14.75 18.1002 14.414 18.4362 14 18.4362Z" fill="#25314C"/>
</g>
</svg>
