<svg width="24" height="24" viewBox="0 0 24 24" fill="none" xmlns="http://www.w3.org/2000/svg">
<g id="activity-notification-circle">
<path id="Vector" opacity="0.4" d="M22 12C22 17.615 17.365 22.1541 11.715 21.9961C6.498 21.8501 2.15 17.5019 2.004 12.2849C1.846 6.63491 6.38501 2 12 2C13.577 2 15.073 2.37005 16.402 3.02405C16.525 3.08505 16.585 3.22206 16.56 3.35706C16.454 3.92606 16.478 4.53401 16.71 5.18201C17.041 6.10401 17.769 6.86601 18.677 7.23401C19.376 7.51701 20.031 7.55196 20.64 7.43896C20.776 7.41396 20.914 7.47502 20.975 7.59802C21.63 8.92802 22 10.423 22 12Z" fill="#FBFFE4"/>
<path id="Vector_2" d="M6.99999 14.75C6.80799 14.75 6.61599 14.6771 6.46999 14.5301C6.17699 14.2371 6.17699 13.762 6.46999 13.469L9.26099 10.678C9.94299 9.996 11.053 9.99603 11.735 10.677L13.324 12.262C13.422 12.359 13.58 12.359 13.678 12.262L16.471 9.46902C16.764 9.17602 17.239 9.17602 17.532 9.46902C17.825 9.76202 17.825 10.2371 17.532 10.5301L14.739 13.323C14.058 14.005 12.947 14.006 12.265 13.324L10.676 11.739C10.578 11.641 10.42 11.641 10.322 11.739L7.531 14.5301C7.384 14.6771 7.19199 14.75 6.99999 14.75Z" fill="#FBFFE4"/>
<path id="Vector_3" d="M20 6C21.1046 6 22 5.10457 22 4C22 2.89543 21.1046 2 20 2C18.8954 2 18 2.89543 18 4C18 5.10457 18.8954 6 20 6Z" fill="#FBFFE4"/>
</g>
</svg>
